<svg width="132" height="55" viewBox="0 0 132 55" fill="none" xmlns="http://www.w3.org/2000/svg">
<path fill-rule="evenodd" clip-rule="evenodd" d="M69.0245 18.7513C69.0245 19.199 68.8917 19.6367 68.6429 20.0091C68.3942 20.3814 68.0406 20.6716 67.6269 20.8429C67.2132 21.0143 66.758 21.0591 66.3188 20.9717C65.8796 20.8844 65.4762 20.6688 65.1596 20.3521C64.843 20.0355 64.6273 19.6321 64.54 19.1929C64.4526 18.7538 64.4975 18.2985 64.6688 17.8849C64.8402 17.4712 65.1304 17.1176 65.5027 16.8688C65.875 16.62 66.3127 16.4873 66.7605 16.4873C67.0581 16.4863 67.3529 16.5443 67.628 16.6577C67.9031 16.7712 68.153 16.9379 68.3634 17.1483C68.5738 17.3587 68.7406 17.6087 68.854 17.8838C68.9675 18.1589 69.0254 18.4537 69.0245 18.7513ZM59.6845 23.3013V23.8613C59.2572 23.3989 58.7347 23.0348 58.1531 22.794C57.5715 22.5532 56.9445 22.4413 56.3155 22.4663C55.4141 22.4565 54.5201 22.6296 53.6875 22.975C52.8549 23.3203 52.1009 23.8309 51.4711 24.4758C50.8412 25.1206 50.3486 25.8865 50.023 26.727C49.6974 27.5676 49.5455 28.4654 49.5765 29.3663C49.5445 30.2671 49.6955 31.1651 50.0203 32.006C50.3451 32.8469 50.8369 33.6132 51.4661 34.2588C52.0952 34.9043 52.8487 35.4156 53.681 35.7619C54.5133 36.1081 55.4071 36.2821 56.3085 36.2733C56.9412 36.3023 57.5723 36.1891 58.1554 35.9417C58.7385 35.6944 59.2586 35.3194 59.6775 34.8443V35.4373C59.6765 35.5012 59.6884 35.5647 59.7125 35.624C59.7365 35.6832 59.7722 35.7371 59.8174 35.7823C59.8627 35.8275 59.9165 35.8632 59.9758 35.8873C60.035 35.9113 60.0985 35.9232 60.1625 35.9223H62.9865V22.7933H60.1865C60.059 22.7968 59.9376 22.849 59.8474 22.9392C59.7572 23.0294 59.705 23.1507 59.7015 23.2783L59.6845 23.3013ZM59.6845 31.6973C59.3611 32.1427 58.9363 32.5046 58.4452 32.7531C57.9541 33.0016 57.4109 33.1295 56.8605 33.1263C54.6305 33.1263 52.9255 31.7313 52.9255 29.3663C52.9255 27.0013 54.6305 25.6063 56.8605 25.6063C57.4095 25.6104 57.9502 25.7415 58.4401 25.9895C58.93 26.2374 59.3559 26.5953 59.6845 27.0353V31.7053V31.6973ZM65.0845 22.8153H68.4545V35.9153H65.0845V22.7933V22.8153ZM115.051 22.4653C114.422 22.4403 113.796 22.5522 113.214 22.793C112.632 23.0338 112.11 23.3979 111.682 23.8603V16.5083H108.312V35.9133H111.135C111.263 35.9097 111.384 35.8575 111.475 35.7673C111.565 35.6771 111.617 35.5558 111.62 35.4283V34.8353C112.042 35.3049 112.562 35.6764 113.143 35.9233C113.724 36.1702 114.352 36.2866 114.982 36.2642C115.883 36.2712 116.776 36.0962 117.607 35.7498C118.438 35.4034 119.191 34.8928 119.821 34.2485C120.45 33.6042 120.942 32.8395 121.269 32.0003C121.596 31.161 121.75 30.2644 121.721 29.3643C121.75 28.4639 121.597 27.5669 121.271 26.7273C120.945 25.8876 120.452 25.1226 119.822 24.4781C119.193 23.8337 118.44 23.3231 117.608 22.977C116.776 22.6309 115.883 22.4565 114.982 22.4643L115.051 22.4653ZM114.482 33.0933C113.931 33.101 113.386 32.9751 112.895 32.7262C112.403 32.4774 111.979 32.113 111.658 31.6643V26.9933C111.998 26.5651 112.426 26.2157 112.914 25.969C113.401 25.7223 113.936 25.5842 114.482 25.5643C116.712 25.5643 118.417 26.9593 118.417 29.3243C118.417 31.6893 116.712 33.0843 114.482 33.0843V33.0933ZM106.604 28.1473V35.9503H103.234V28.5373C103.234 26.3743 102.56 25.5053 100.654 25.5053C100.141 25.5231 99.6366 25.6466 99.1729 25.8681C98.7093 26.0895 98.2962 26.4041 97.9595 26.7923V35.9163H94.5895V22.7933H97.2375C97.365 22.7968 97.4863 22.849 97.5765 22.9392C97.6667 23.0294 97.7189 23.1507 97.7225 23.2783V23.8383C98.1875 23.3753 98.7426 23.0126 99.3534 22.7726C99.9641 22.5327 100.618 22.4206 101.273 22.4433C102.606 22.394 103.91 22.8404 104.932 23.6963C106.118 24.6733 106.569 25.9263 106.569 28.1233L106.604 28.1473ZM86.5045 22.4673C85.8755 22.4423 85.2485 22.5542 84.6669 22.795C84.0852 23.0358 83.5628 23.3999 83.1355 23.8623V16.5103H79.7655V35.9133H82.5895C82.717 35.9097 82.8383 35.8575 82.9285 35.7673C83.0187 35.6771 83.071 35.5558 83.0745 35.4283V34.8353C83.4969 35.3059 84.0177 35.6778 84.5999 35.9248C85.1821 36.1717 85.8115 36.2876 86.4435 36.2642C87.3441 36.2712 88.2368 36.0962 89.0681 35.7498C89.8994 35.4034 90.6523 34.8928 91.2815 34.2485C91.9108 33.6042 92.4035 32.8395 92.7301 32.0003C93.0568 31.161 93.2106 30.2644 93.1825 29.3643C93.2174 28.4624 93.0681 27.5629 92.7439 26.7206C92.4196 25.8783 91.9272 25.1109 91.2966 24.4653C90.666 23.8196 89.9104 23.3092 89.076 22.9651C88.2417 22.6211 87.3459 22.4507 86.4435 22.4643L86.5045 22.4673ZM85.9425 33.0933C85.3913 33.101 84.8465 32.9751 84.3547 32.7262C83.8628 32.4774 83.4387 32.113 83.1185 31.6643V26.9933C83.458 26.5651 83.8862 26.2157 84.3737 25.969C84.8613 25.7223 85.3965 25.5842 85.9425 25.5643C88.1725 25.5643 89.8775 26.9593 89.8775 29.3243C89.8775 31.6893 88.1725 33.0843 85.9425 33.0843V33.0933ZM76.8625 22.4633C77.3803 22.4468 77.8977 22.5058 78.3985 22.6383V25.7383C78.3985 25.7383 75.5985 24.8153 73.8705 26.7823V35.9473H70.5005V22.7933H73.3245C73.452 22.7968 73.5733 22.849 73.6635 22.9392C73.7537 23.0294 73.806 23.1507 73.8095 23.2783V23.8383C74.6085 23.0081 75.6912 22.51 76.8415 22.4433L76.8625 22.4633ZM42.1225 34.7283L41.5965 33.4753L40.7945 31.6952L40.7605 31.6613C38.3234 26.3502 35.7573 21.0993 33.0645 15.9133L32.9565 15.7133L32.1265 14.0433C31.7833 13.3595 31.3628 12.7173 30.8735 12.1293C30.341 11.4582 29.6624 10.9176 28.8893 10.5487C28.1162 10.1797 27.2691 9.99216 26.4125 10.0003C25.5617 10.0031 24.7218 10.1914 23.9513 10.5522C23.1809 10.913 22.4984 11.4376 21.9515 12.0893C21.4739 12.6859 21.0543 13.3269 20.6985 14.0033L19.7555 15.8493C17.0605 21.0793 14.4585 26.3692 12.0535 31.5972L12.0195 31.6643C11.8195 32.2373 11.5345 32.8243 11.2515 33.4503C11.0761 33.8323 10.9008 34.2499 10.7255 34.7033C10.2809 35.9036 10.1374 37.1946 10.3075 38.4633C10.495 39.7373 11.0112 40.9405 11.8051 41.9544C12.5991 42.9683 13.6435 43.7578 14.8355 44.2453C15.7292 44.621 16.69 44.8111 17.6595 44.8042C17.9615 44.7992 18.263 44.7768 18.5625 44.7373C19.7918 44.5805 20.9768 44.1771 22.0465 43.5513C23.6712 42.5823 25.1295 41.3583 26.3655 39.9263C27.6092 41.3504 29.0662 42.5733 30.6845 43.5513C31.7541 44.1773 32.9391 44.5807 34.1685 44.7373C34.468 44.7768 34.7694 44.7991 35.0715 44.8042C36.0413 44.8144 37.0027 44.6241 37.8955 44.2453C39.0874 43.7578 40.1318 42.9683 40.9258 41.9544C41.7198 40.9405 42.236 39.7373 42.4235 38.4633C42.6802 37.2167 42.57 35.9225 42.1065 34.7373L42.1225 34.7283ZM26.4145 36.5413C24.5345 34.1693 23.3145 31.9453 22.8965 30.0583C22.7258 29.3639 22.6891 28.6433 22.7885 27.9353C22.8575 27.4108 23.049 26.9099 23.3475 26.4733C23.6966 25.9888 24.1579 25.5961 24.6918 25.3286C25.2257 25.0611 25.8164 24.9269 26.4135 24.9373C27.0119 24.9142 27.6065 25.0423 28.1424 25.3097C28.6782 25.5771 29.1381 25.9752 29.4795 26.4673C29.778 26.9039 29.9695 27.4048 30.0385 27.9293C30.1384 28.6373 30.1017 29.358 29.9305 30.0523C29.5125 31.8983 28.2935 34.0952 26.4125 36.5352L26.4145 36.5413ZM40.3165 38.1783C40.1854 39.0702 39.8236 39.9125 39.2669 40.6217C38.7102 41.3308 37.9779 41.8822 37.1425 42.2212C36.3093 42.5736 35.3995 42.7059 34.5005 42.6053C33.5651 42.4895 32.6637 42.1821 31.8525 41.7022C30.3573 40.7995 29.0171 39.662 27.8835 38.3333C30.1815 35.5093 31.5765 32.9333 32.1015 30.6313C32.3282 29.6601 32.3873 28.6573 32.2765 27.6663C32.1471 26.814 31.8245 26.0027 31.3335 25.2943C30.7813 24.5062 30.0439 23.8661 29.1861 23.4301C28.3283 22.9942 27.3765 22.7758 26.4145 22.7943C25.4574 22.782 24.5114 23.0004 23.6564 23.4308C22.8015 23.8612 22.0627 24.4911 21.5025 25.2673C21.0114 25.9757 20.6889 26.787 20.5595 27.6393C20.4122 28.6291 20.4718 29.6386 20.7345 30.6042C21.2605 32.9023 22.6885 35.5163 24.9525 38.3403C23.8268 39.6769 22.4853 40.8157 20.9835 41.7093C20.1723 42.1995 19.2683 42.5162 18.3285 42.6392C17.4305 42.739 16.5217 42.6188 15.6805 42.2892C14.8451 41.9502 14.1128 41.3988 13.556 40.6897C12.9993 39.9805 12.6375 39.1382 12.5065 38.2463C12.3963 37.3355 12.505 36.4116 12.8235 35.5513C12.9315 35.2013 13.0995 34.8773 13.2735 34.4393C13.5165 33.8793 13.7995 33.2873 14.0755 32.6943L14.1095 32.6273C16.5155 27.4273 19.0895 22.1423 21.7795 16.9803L21.8795 16.7303L22.7155 15.1263C22.9867 14.5733 23.3239 14.0552 23.7195 13.5833C24.063 13.1796 24.4901 12.8555 24.9712 12.6331C25.4523 12.4108 25.976 12.2957 26.506 12.2957C27.036 12.2957 27.5597 12.4108 28.0408 12.6331C28.5219 12.8555 28.949 13.1796 29.2925 13.5833C29.6682 14.0541 29.9871 14.5676 30.2425 15.1133L31.0785 16.7173L31.1785 16.9173C33.8265 22.1133 36.4145 27.4023 38.8135 32.5972V32.6313C39.0895 33.1912 39.3395 33.8173 39.6155 34.3763C39.7905 34.7943 39.9655 35.1443 40.0655 35.4883C40.3548 36.3555 40.438 37.2782 40.3085 38.1833L40.3165 38.1783Z" fill="#9B9DA0"/>
</svg>
