<svg width="100" height="100" viewBox="0 0 100 100" fill="none" xmlns="http://www.w3.org/2000/svg">
<rect width="100" height="100" rx="8" fill="#EFE5FF"/>
<path d="M66.6663 31.6663H33.333C32.4125 31.6663 31.6663 32.4125 31.6663 33.3329V66.6663C31.6663 67.5867 32.4125 68.3329 33.333 68.3329H66.6663C67.5868 68.3329 68.333 67.5867 68.333 66.6663V33.3329C68.333 32.4125 67.5868 31.6663 66.6663 31.6663Z" stroke="#3C474C" stroke-width="3.33333" stroke-linecap="round" stroke-linejoin="round"/>
<path d="M60.0003 28.3333V34.9999" stroke="#3C474C" stroke-width="3.33333" stroke-linecap="round" stroke-linejoin="round"/>
<path d="M40.0003 28.3333V34.9999" stroke="#3C474C" stroke-width="3.33333" stroke-linecap="round" stroke-linejoin="round"/>
<path d="M31.6663 41.6663H68.333" stroke="#3C474C" stroke-width="3.33333" stroke-linecap="round" stroke-linejoin="round"/>
<path d="M42.5003 50.0002H48.3337L45.0003 54.1669C45.5489 54.166 46.0892 54.3004 46.5734 54.5584C47.0575 54.8163 47.4705 55.1898 47.7758 55.6456C48.081 56.1015 48.269 56.6256 48.3231 57.1715C48.3772 57.7174 48.2957 58.2682 48.0859 58.7751C47.8761 59.282 47.5445 59.7292 47.1204 60.0772C46.6963 60.4251 46.1929 60.6631 45.6548 60.7698C45.1167 60.8766 44.5605 60.8489 44.0357 60.6892C43.5109 60.5295 43.0336 60.2428 42.6462 59.8544" stroke="#3C474C" stroke-width="3.33333" stroke-linecap="round" stroke-linejoin="round"/>
<path d="M53.3333 52.5002L56.6667 50.0002V60.8336" stroke="#3C474C" stroke-width="3.33333" stroke-linecap="round" stroke-linejoin="round"/>
</svg>
