<svg width="100" height="49" viewBox="0 0 100 49" fill="none" xmlns="http://www.w3.org/2000/svg">
<path d="M7.97609 48.2354C12.3594 48.2354 15.9178 44.6771 15.9178 40.2937V32.3521H7.97609C3.59276 32.3521 0.0344238 35.9104 0.0344238 40.2937C0.0344238 44.6771 3.59276 48.2354 7.97609 48.2354Z" fill="#9B9DA0"/>
<path d="M0.0266113 24.4021C0.0266113 20.0188 3.58494 16.4604 7.96828 16.4604H15.9099V32.3521H7.96828C3.58494 32.3521 0.0266113 28.7938 0.0266113 24.4104V24.4021Z" fill="#9B9DA0"/>
<path d="M0.0266113 8.51051C0.0266113 4.12718 3.58494 0.568848 7.96828 0.568848H15.9099V16.4605H7.96828C3.58494 16.4605 0.0266113 12.9022 0.0266113 8.51885V8.51051Z" fill="#9B9DA0"/>
<path d="M15.843 0.568848H23.7847C28.168 0.568848 31.7264 4.12718 31.7264 8.51051C31.7264 12.8938 28.168 16.4522 23.7847 16.4522H15.843V0.568848Z" fill="#9B9DA0"/>
<path d="M31.8097 24.4021C31.8097 28.7854 28.2514 32.3438 23.868 32.3438C19.4847 32.3438 15.843 28.7854 15.843 24.4021C15.843 20.0188 19.4014 16.4604 23.7847 16.4604C28.168 16.4604 31.7264 20.0188 31.7264 24.4021H31.8097Z" fill="#9B9DA0"/>
<path d="M40.4934 13.7349V30.3849H42.6351V22.4349H47.7851V20.3682H42.6351V15.8182H49.3267V13.7349H40.4934ZM53.2017 17.1182C53.9767 17.1182 54.6017 16.4932 54.6017 15.7182C54.6017 14.9432 53.9684 14.4015 53.2017 14.4015C52.4351 14.4015 51.8017 15.0265 51.8017 15.8015C51.8017 16.1765 51.9517 16.5265 52.2184 16.8015C52.4851 17.0765 52.8351 17.2182 53.2184 17.2182L53.2017 17.1182ZM52.1184 19.2182V30.3849H54.1767V19.2182H52.0517H52.1184ZM62.2184 18.8849C59.3684 18.8849 57.3851 21.3849 57.3851 24.1515C57.3851 26.9182 59.3851 29.4015 62.2184 29.4015C62.808 29.4118 63.3932 29.2994 63.937 29.0713C64.4807 28.8432 64.971 28.5044 65.3767 28.0765V29.5599C65.3708 30.4511 65.0251 31.3065 64.4101 31.9515C64.0994 32.2685 63.7285 32.5202 63.3193 32.6919C62.91 32.8637 62.4706 32.9519 62.0267 32.9515C61.3452 32.93 60.6849 32.7099 60.1267 32.3182L59.0434 34.1765C59.8754 34.7116 60.8362 35.0123 61.8247 35.0472C62.8132 35.082 63.7929 34.8496 64.6604 34.3745C65.528 33.8993 66.2513 33.199 66.7543 32.3473C67.2573 31.4956 67.5212 30.524 67.5184 29.5349V19.2015H65.3767V20.2015C64.971 19.7737 64.4807 19.4349 63.937 19.2068C63.3932 18.9787 62.808 18.8662 62.2184 18.8765V18.8849ZM59.5351 24.1515C59.4863 23.6098 59.5899 23.0651 59.8344 22.5792C60.0788 22.0932 60.4543 21.6853 60.9184 21.4015C61.8684 20.8182 63.0601 20.8182 64.0017 21.4015C64.9434 21.9849 65.4767 23.0515 65.3851 24.1515C65.4339 24.6933 65.3302 25.2379 65.0857 25.7239C64.8413 26.2098 64.4658 26.6178 64.0017 26.9015C63.0517 27.4849 61.8601 27.4849 60.9184 26.9015C59.9767 26.3182 59.4434 25.2515 59.5351 24.1515Z" fill="#9B9DA0"/>
<path d="M75.2433 21.0687C74.6273 21.0709 74.0372 21.3166 73.6017 21.7521C73.1661 22.1877 72.9205 22.7777 72.9183 23.3937V30.4604H70.7766V19.2937H72.9183V20.2354C73.5683 19.3687 74.6016 18.8687 75.6849 18.8854C77.0516 18.852 78.3266 19.5854 79.0016 20.777C79.8349 19.6104 81.0349 18.902 82.3349 18.8854C84.7766 18.8854 86.2933 20.852 86.3016 23.2854V30.3937H84.1599V23.3104C84.2227 22.8691 84.1578 22.4191 83.9729 22.0136C83.788 21.6081 83.4908 21.2641 83.1165 21.0221C82.7422 20.7802 82.3064 20.6505 81.8608 20.6484C81.4151 20.6463 80.9782 20.7719 80.6016 21.0104C80.2272 21.2545 79.9307 21.601 79.7475 22.0088C79.5643 22.4165 79.5021 22.8683 79.5683 23.3104V30.377H77.5099V23.3187C77.5077 22.7027 77.2621 22.1127 76.8265 21.6771C76.391 21.2416 75.8009 20.9959 75.1849 20.9937L75.2433 21.0687ZM97.7433 20.4854C97.2558 19.9767 96.6695 19.5731 96.0203 19.2994C95.3711 19.0257 94.6728 18.8876 93.9683 18.8937C90.7766 18.8937 88.5516 21.5937 88.5516 24.727C88.5516 27.8604 90.8016 30.5604 93.9683 30.5604C94.6728 30.5665 95.3711 30.4284 96.0203 30.1547C96.6695 29.881 97.2558 29.4774 97.7433 28.9687V30.2354H99.8849V19.0687H97.7433V20.4854ZM90.6599 24.8187C90.5516 23.4854 91.2016 22.202 92.3433 21.502C93.4849 20.802 94.8433 20.802 96.0599 21.502C96.6172 21.8479 97.0688 22.34 97.3656 22.9249C97.6624 23.5097 97.7931 24.1648 97.7433 24.8187C97.8516 26.152 97.2016 27.4354 96.0599 28.1354C94.9183 28.8354 93.5599 28.8354 92.3433 28.1354C91.786 27.7895 91.3344 27.2974 91.0376 26.7125C90.7408 26.1277 90.6101 25.4726 90.6599 24.8187Z" fill="#9B9DA0"/>
</svg>
