<svg width="109" height="36" viewBox="0 0 109 36" fill="none" xmlns="http://www.w3.org/2000/svg">
<path d="M27.1079 13.2404H14.5879V16.9554H23.4679C23.0279 22.1554 18.6949 24.3874 14.6029 24.3874C13.3065 24.3931 12.022 24.1405 10.8244 23.6443C9.62678 23.1482 8.53999 22.4184 7.62749 21.4976C6.71499 20.5768 5.99507 19.4835 5.50975 18.2814C5.02443 17.0793 4.78344 15.7926 4.80085 14.4964C4.80085 8.87241 9.15485 4.54241 14.6149 4.54241C18.8269 4.54241 21.3089 7.22741 21.3089 7.22741L23.9089 4.53341C23.9089 4.53341 20.5689 0.816406 14.4789 0.816406C6.72385 0.816406 0.724854 7.36141 0.724854 14.4304C0.724854 21.3574 6.36785 28.1124 14.6749 28.1124C21.9819 28.1124 27.3309 23.1064 27.3309 15.7044C27.3309 14.1424 27.1039 13.2404 27.1039 13.2404H27.1079Z" fill="#9B9DA0"/>
<path d="M37.3652 10.5489C32.2272 10.5489 28.5452 14.5659 28.5452 19.2489C28.5452 24.0029 32.1152 28.0939 37.4252 28.0939C42.2312 28.0939 46.1682 24.4209 46.1682 19.3509C46.1682 13.5509 41.5882 10.5479 37.3652 10.5479V10.5489ZM37.4152 13.9949C39.9412 13.9949 42.3352 16.0379 42.3352 19.3289C42.3352 22.5489 39.9512 24.6509 37.4032 24.6509C34.6032 24.6509 32.4032 22.4089 32.4032 19.3029C32.4032 16.2629 34.5832 13.9949 37.4232 13.9949H37.4152Z" fill="#9B9DA0"/>
<path d="M56.5458 10.5489C51.4078 10.5489 47.7258 14.5659 47.7258 19.2489C47.7258 24.0029 51.2958 28.0939 56.6058 28.0939C61.4118 28.0939 65.3488 24.4209 65.3488 19.3509C65.3488 13.5509 60.7688 10.5479 56.5458 10.5479V10.5489ZM56.5958 13.9949C59.1218 13.9949 61.5158 16.0379 61.5158 19.3289C61.5158 22.5489 59.1318 24.6509 56.5838 24.6509C53.7838 24.6509 51.5838 22.4089 51.5838 19.3029C51.5838 16.2629 53.7638 13.9949 56.6038 13.9949H56.5958Z" fill="#9B9DA0"/>
<path d="M75.3588 10.5586C70.6428 10.5586 66.9368 14.6886 66.9368 19.3246C66.9368 24.6046 71.2338 28.1066 75.2768 28.1066C77.7768 28.1066 79.1068 27.1136 80.0768 25.9746V27.7046C80.0768 30.7316 78.2388 32.5446 75.4648 32.5446C72.7848 32.5446 71.4408 30.5516 70.9648 29.4216L67.5928 30.8216C68.7888 33.3516 71.1968 35.9886 75.4928 35.9886C80.1928 35.9886 83.7548 33.0356 83.7548 26.8416V11.0856H80.0908V12.5716C78.9608 11.3516 77.4128 10.5586 75.3608 10.5586H75.3588ZM75.6988 13.9986C78.0108 13.9986 80.3848 15.9726 80.3848 19.3436C80.3848 22.7706 78.0148 24.6586 75.6478 24.6586C73.1338 24.6586 70.7948 22.6186 70.7948 19.3756C70.7948 16.0076 73.2248 13.9976 75.6988 13.9976V13.9986Z" fill="#9B9DA0"/>
<path d="M100.131 10.5381C95.6825 10.5381 91.9475 14.0781 91.9475 19.2981C91.9475 24.8241 96.1105 28.1011 100.548 28.1011C104.26 28.1011 106.548 26.0711 107.898 24.2511L104.865 22.2331C104.078 23.4531 102.762 24.6481 100.567 24.6481C98.1005 24.6481 96.9665 23.2981 96.2635 21.9881L108.027 17.1081L107.427 15.6781C106.291 12.8781 103.64 10.5381 100.132 10.5381H100.131ZM100.284 13.9121C101.887 13.9121 103.04 14.7641 103.53 15.7861L95.6735 19.0691C95.3335 16.5271 97.7435 13.9121 100.274 13.9121H100.284Z" fill="#9B9DA0"/>
<path d="M86.3303 27.5806H90.1943V1.72363H86.3303V27.5806Z" fill="#9B9DA0"/>
</svg>
