<svg width="48" height="48" viewBox="0 0 48 48" fill="none" xmlns="http://www.w3.org/2000/svg">
<path fill-rule="evenodd" clip-rule="evenodd" d="M48 22C48 11.6291 48 6.44365 44.7782 3.22183C41.5564 0 36.3709 0 26 0H22C11.6291 0 6.44365 0 3.22183 3.22183C0 6.44365 0 11.6291 0 22V26C0 36.3709 0 41.5564 3.22183 44.7782C6.44365 48 11.6291 48 22 48H26C36.3709 48 41.5564 48 44.7782 44.7782C48 41.5564 48 36.3709 48 26V22ZM10.2314 13.8427C12.2259 13.8427 13.8427 12.2259 13.8427 10.2314C13.8427 8.23695 12.2259 6.62012 10.2314 6.62012C8.23695 6.62012 6.62012 8.23695 6.62012 10.2314C6.62012 12.2259 8.23695 13.8427 10.2314 13.8427ZM27.6855 10.2314C27.6855 12.2259 26.0686 13.8427 24.0742 13.8427C22.0797 13.8427 20.4629 12.2259 20.4629 10.2314C20.4629 8.23695 22.0797 6.62012 24.0742 6.62012C26.0686 6.62012 27.6855 8.23695 27.6855 10.2314ZM37.917 13.8427C39.9114 13.8427 41.5282 12.2259 41.5282 10.2314C41.5282 8.23695 39.9114 6.62012 37.917 6.62012C35.9225 6.62012 34.3057 8.23695 34.3057 10.2314C34.3057 12.2259 35.9225 13.8427 37.917 13.8427ZM13.8427 24.0752C13.8427 26.0696 12.2259 27.6864 10.2314 27.6864C8.23695 27.6864 6.62012 26.0696 6.62012 24.0752C6.62012 22.0807 8.23695 20.4639 10.2314 20.4639C12.2259 20.4639 13.8427 22.0807 13.8427 24.0752ZM24.0742 27.6864C26.0686 27.6864 27.6855 26.0696 27.6855 24.0752C27.6855 22.0807 26.0686 20.4639 24.0742 20.4639C22.0797 20.4639 20.4629 22.0807 20.4629 24.0752C20.4629 26.0696 22.0797 27.6864 24.0742 27.6864ZM41.5282 24.0752C41.5282 26.0696 39.9114 27.6864 37.917 27.6864C35.9225 27.6864 34.3057 26.0696 34.3057 24.0752C34.3057 22.0807 35.9225 20.4639 37.917 20.4639C39.9114 20.4639 41.5282 22.0807 41.5282 24.0752ZM10.2314 41.5302C12.2259 41.5302 13.8427 39.9134 13.8427 37.9189C13.8427 35.9244 12.2259 34.3076 10.2314 34.3076C8.23695 34.3076 6.62012 35.9244 6.62012 37.9189C6.62012 39.9134 8.23695 41.5302 10.2314 41.5302ZM27.6855 37.9189C27.6855 39.9134 26.0686 41.5302 24.0742 41.5302C22.0797 41.5302 20.4629 39.9134 20.4629 37.9189C20.4629 35.9244 22.0797 34.3076 24.0742 34.3076C26.0686 34.3076 27.6855 35.9244 27.6855 37.9189ZM37.917 41.5302C39.9114 41.5302 41.5282 39.9134 41.5282 37.9189C41.5282 35.9244 39.9114 34.3076 37.917 34.3076C35.9225 34.3076 34.3057 35.9244 34.3057 37.9189C34.3057 39.9134 35.9225 41.5302 37.917 41.5302Z" fill="url(#paint0_linear_1_9572)"/>
<defs>
<linearGradient id="paint0_linear_1_9572" x1="24" y1="0" x2="24" y2="48" gradientUnits="userSpaceOnUse">
<stop stop-color="#4545C7"/>
<stop offset="0.971524" stop-color="#6A36FF"/>
</linearGradient>
</defs>
</svg>
