<svg width="101" height="35" viewBox="0 0 101 35" fill="none" xmlns="http://www.w3.org/2000/svg">
<path d="M47.9581 26.6593H51.1708V12.6656H47.9581V26.6593ZM59.6788 18.3926C58.0407 17.8593 56.5169 17.4402 56.5169 16.4244V16.3736C56.5169 15.5482 57.228 14.964 58.4851 14.964C59.0946 14.964 59.7676 15.1037 60.4788 15.345C60.4788 15.345 60.4915 15.345 60.5042 15.3577C60.5676 15.3831 60.6311 15.4085 60.6819 15.4212C61.1899 15.5863 62.5613 15.8021 63.7169 13.9989C62.2184 13.0339 60.3137 12.4243 58.5613 12.4243C55.7803 12.4243 53.5708 14.037 53.5708 16.691V16.7418C53.5708 19.4212 55.8819 20.272 57.9518 20.8561C59.5899 21.3641 61.0756 21.7323 61.0756 22.8117V22.8625C61.0756 23.7895 60.2756 24.3736 58.9042 24.3736C57.9899 24.3736 56.9867 24.1323 55.9835 23.6625C55.6915 23.5355 54.193 23.0276 52.9232 24.8561C54.6629 26.2149 56.8597 26.926 58.828 26.926C61.7486 26.926 64.0216 25.4657 64.0216 22.5196V22.4815C64.0216 19.9545 61.7232 19.0275 59.6788 18.3926ZM39.2089 22.9514L35.4375 12.6656H31.9962L37.7486 26.7736H40.6438L46.3708 12.6656H43.0057L39.2089 22.9514ZM78.9296 12.3735C74.6375 12.3735 71.4502 15.6878 71.4502 19.7133C71.4502 23.7133 74.5994 26.9768 78.8788 26.9768C83.1962 26.9768 86.3835 23.6625 86.3835 19.6625C86.3835 15.637 83.2216 12.3735 78.9296 12.3735ZM78.9296 24.1958C76.4407 24.1958 74.6629 22.1514 74.6629 19.6625C74.6629 17.199 76.301 15.1799 78.8788 15.1799C81.393 15.1799 83.1708 17.2244 83.1708 19.7133C83.1708 22.1895 81.52 24.1958 78.9296 24.1958ZM95.8946 12.3735C93.7232 12.3735 92.4153 13.5164 91.5137 14.837V12.6656H88.301V26.672H91.5137V18.7736C91.5137 16.6021 92.8089 15.2942 94.6756 15.2942C96.5803 15.2942 97.6724 16.5386 97.6724 18.7101V26.6593H100.885V17.745C100.885 14.4942 99.0565 12.3735 95.8946 12.3735ZM66.1423 26.6593H69.3549V12.6656H66.1423V26.6593Z" fill="#9B9DA0"/>
<path fill-rule="evenodd" clip-rule="evenodd" d="M3.91981 0.640137H31.3738C33.05 0.640137 34.4087 1.99887 34.396 3.67507V31.1292C34.396 32.8054 33.0373 34.1641 31.3611 34.1641H3.91981C2.24362 34.1641 0.884888 32.8054 0.884888 31.1165V3.67507C0.884888 1.99887 2.24362 0.640137 3.91981 0.640137ZM14.1298 9.17384C14.1298 10.3167 13.2028 11.1929 12.0853 11.1929C10.9806 11.1929 10.0409 10.3167 10.0409 9.17384C10.0409 8.03098 10.9679 7.15479 12.0853 7.15479C13.1901 7.15479 14.1298 8.03098 14.1298 9.17384ZM7.6663 23.5104C7.6663 23.066 7.72979 22.5073 7.84408 21.9993L9.36789 15.7263H6.99329L7.7171 13.0596H13.4441L11.1838 22.0247C11.0314 22.6088 10.9679 23.0787 10.9679 23.4088C10.9679 23.9803 11.2473 24.1454 11.6917 24.2469C11.9584 24.2977 14.0917 24.2596 15.26 21.6691L16.7457 15.7263H14.333L15.0568 13.0596H20.2123L19.552 16.0818C20.4536 14.3929 22.2568 12.7929 24.0346 12.7929C25.9393 12.7929 27.5012 14.1389 27.5012 16.7294C27.5012 17.3898 27.4123 18.1136 27.1711 18.9263L26.206 22.393C26.1171 22.7612 26.0536 23.066 26.0536 23.3326C26.0536 23.9295 26.2949 24.2342 26.752 24.2342C27.2092 24.2342 27.7806 23.9041 28.4409 22.0628L29.7615 22.5707C28.9742 25.3136 27.5647 26.4565 25.7869 26.4565C23.7044 26.4565 22.7139 25.2247 22.7139 23.5358C22.7139 23.0533 22.7774 22.5326 22.9298 22.0247L23.9203 18.4691C24.0473 18.0882 24.0727 17.7199 24.0727 17.3898C24.0727 16.2469 23.3869 15.5485 22.2695 15.5485C20.8473 15.5485 19.9203 16.5644 19.4377 18.5199L17.5076 26.2533H14.1298L14.7393 23.8279C13.7488 25.466 12.3774 26.4692 10.6758 26.4692C8.63138 26.4692 7.6663 25.2882 7.6663 23.5104Z" fill="#9B9DA0"/>
</svg>
