<svg width="213" height="48" viewBox="0 0 213 48" fill="none" xmlns="http://www.w3.org/2000/svg">
<path fill-rule="evenodd" clip-rule="evenodd" d="M48 22C48 11.6291 48 6.44365 44.7782 3.22183C41.5563 0 36.3709 0 26 0H22C11.6291 0 6.44365 0 3.22183 3.22183C0 6.44365 0 11.6291 0 22V26C0 36.3709 0 41.5563 3.22183 44.7782C6.44365 48 11.6291 48 22 48H26C36.3709 48 41.5563 48 44.7782 44.7782C48 41.5563 48 36.3709 48 26V22ZM10.2314 13.8427C12.2259 13.8427 13.8427 12.2259 13.8427 10.2314C13.8427 8.23695 12.2259 6.62012 10.2314 6.62012C8.23695 6.62012 6.62012 8.23695 6.62012 10.2314C6.62012 12.2259 8.23695 13.8427 10.2314 13.8427ZM27.6855 10.2314C27.6855 12.2259 26.0686 13.8427 24.0742 13.8427C22.0797 13.8427 20.4629 12.2259 20.4629 10.2314C20.4629 8.23695 22.0797 6.62012 24.0742 6.62012C26.0686 6.62012 27.6855 8.23695 27.6855 10.2314ZM37.917 13.8427C39.9114 13.8427 41.5282 12.2259 41.5282 10.2314C41.5282 8.23695 39.9114 6.62012 37.917 6.62012C35.9225 6.62012 34.3057 8.23695 34.3057 10.2314C34.3057 12.2259 35.9225 13.8427 37.917 13.8427ZM13.8427 24.0752C13.8427 26.0696 12.2259 27.6864 10.2314 27.6864C8.23695 27.6864 6.62012 26.0696 6.62012 24.0752C6.62012 22.0807 8.23695 20.4639 10.2314 20.4639C12.2259 20.4639 13.8427 22.0807 13.8427 24.0752ZM24.0742 27.6864C26.0686 27.6864 27.6855 26.0696 27.6855 24.0752C27.6855 22.0807 26.0686 20.4639 24.0742 20.4639C22.0797 20.4639 20.4629 22.0807 20.4629 24.0752C20.4629 26.0696 22.0797 27.6864 24.0742 27.6864ZM41.5282 24.0752C41.5282 26.0696 39.9114 27.6864 37.917 27.6864C35.9225 27.6864 34.3057 26.0696 34.3057 24.0752C34.3057 22.0807 35.9225 20.4639 37.917 20.4639C39.9114 20.4639 41.5282 22.0807 41.5282 24.0752ZM10.2314 41.5302C12.2259 41.5302 13.8427 39.9134 13.8427 37.9189C13.8427 35.9244 12.2259 34.3076 10.2314 34.3076C8.23695 34.3076 6.62012 35.9244 6.62012 37.9189C6.62012 39.9134 8.23695 41.5302 10.2314 41.5302ZM27.6855 37.9189C27.6855 39.9134 26.0686 41.5302 24.0742 41.5302C22.0797 41.5302 20.4629 39.9134 20.4629 37.9189C20.4629 35.9244 22.0797 34.3076 24.0742 34.3076C26.0686 34.3076 27.6855 35.9244 27.6855 37.9189ZM37.917 41.5302C39.9114 41.5302 41.5282 39.9134 41.5282 37.9189C41.5282 35.9244 39.9114 34.3076 37.917 34.3076C35.9225 34.3076 34.3057 35.9244 34.3057 37.9189C34.3057 39.9134 35.9225 41.5302 37.917 41.5302Z" fill="url(#paint0_linear_1_9571)"/>
<path d="M78.472 36.54C85.636 36.54 89.308 31.788 90.28 27.864L85.636 26.46C84.952 28.836 82.828 31.68 78.472 31.68C74.368 31.68 70.552 28.692 70.552 23.256C70.552 17.46 74.584 14.724 78.4 14.724C82.828 14.724 84.808 17.424 85.42 19.872L90.1 18.396C89.092 14.256 85.456 9.936 78.4 9.936C71.56 9.936 65.404 15.12 65.404 23.256C65.404 31.392 71.344 36.54 78.472 36.54ZM98.4846 25.596C98.5926 23.652 99.7806 22.14 101.797 22.14C104.101 22.14 105.073 23.688 105.073 25.668V36H109.861V24.84C109.861 20.952 107.773 17.82 103.273 17.82C101.581 17.82 99.6366 18.396 98.4846 19.764V9.936H93.6966V36H98.4846V25.596ZM113.64 31.176C113.64 33.948 115.944 36.504 119.724 36.504C122.352 36.504 124.044 35.28 124.944 33.876C124.944 34.56 125.016 35.532 125.124 36H129.516C129.408 35.388 129.3 34.128 129.3 33.192V24.48C129.3 20.916 127.212 17.748 121.596 17.748C116.844 17.748 114.288 20.808 114 23.58L118.248 24.48C118.392 22.932 119.544 21.6 121.632 21.6C123.648 21.6 124.62 22.644 124.62 23.904C124.62 24.516 124.296 25.02 123.288 25.164L118.932 25.812C115.98 26.244 113.64 28.008 113.64 31.176ZM120.732 32.94C119.184 32.94 118.428 31.932 118.428 30.888C118.428 29.52 119.4 28.836 120.624 28.656L124.62 28.044V28.836C124.62 31.968 122.748 32.94 120.732 32.94ZM139.925 12.996H135.605V15.48C135.605 17.064 134.741 18.288 132.869 18.288H131.969V22.536H135.173V30.78C135.173 34.2 137.333 36.252 140.789 36.252C142.193 36.252 143.057 36 143.489 35.82V31.86C143.237 31.932 142.589 32.004 142.013 32.004C140.645 32.004 139.925 31.5 139.925 29.952V22.536H143.489V18.288H139.925V12.996ZM165.811 36H169.627L159.475 10.476H155.407L145.255 36H149.035L151.735 28.872H163.039L165.811 36ZM157.351 14.148L161.779 25.596H152.995L157.351 14.148ZM176.048 42.84V33.66C176.984 35.208 179 36.468 181.664 36.468C186.74 36.468 189.728 32.472 189.728 27.324C189.728 22.284 186.956 18.288 181.772 18.288C178.964 18.288 176.912 19.656 175.976 21.384V18.684H172.7V42.84H176.048ZM186.272 27.324C186.272 30.888 184.292 33.444 181.16 33.444C178.064 33.444 176.012 30.888 176.012 27.324C176.012 23.868 178.064 21.276 181.16 21.276C184.328 21.276 186.272 23.868 186.272 27.324ZM197.388 42.84V33.66C198.324 35.208 200.34 36.468 203.004 36.468C208.08 36.468 211.068 32.472 211.068 27.324C211.068 22.284 208.296 18.288 203.112 18.288C200.304 18.288 198.252 19.656 197.316 21.384V18.684H194.04V42.84H197.388ZM207.612 27.324C207.612 30.888 205.632 33.444 202.5 33.444C199.404 33.444 197.352 30.888 197.352 27.324C197.352 23.868 199.404 21.276 202.5 21.276C205.668 21.276 207.612 23.868 207.612 27.324Z" fill="url(#paint1_linear_1_9571)"/>
<defs>
<linearGradient id="paint0_linear_1_9571" x1="24" y1="0" x2="24" y2="48" gradientUnits="userSpaceOnUse">
<stop stop-color="#4545C7"/>
<stop offset="0.971524" stop-color="#6A36FF"/>
</linearGradient>
<linearGradient id="paint1_linear_1_9571" x1="138.5" y1="0" x2="138.5" y2="46" gradientUnits="userSpaceOnUse">
<stop stop-color="#4545C7"/>
<stop offset="0.971524" stop-color="#6A36FF"/>
</linearGradient>
</defs>
</svg>
