<svg width="100" height="100" viewBox="0 0 100 100" fill="none" xmlns="http://www.w3.org/2000/svg">
<rect width="100" height="100" rx="8" fill="#CAF4FF"/>
<path d="M66.6666 54.1663C66.6666 58.5865 64.9107 62.8258 61.7851 65.9514C58.6595 69.077 54.4203 70.8329 50 70.8329C45.5797 70.8329 41.3405 69.077 38.2149 65.9514C35.0893 62.8258 33.3333 58.5865 33.3333 54.1663V45.8329C33.3333 41.4127 35.0893 37.1734 38.2149 34.0478C41.3405 30.9222 45.5797 29.1663 50 29.1663C54.4203 29.1663 58.6595 30.9222 61.7851 34.0478C64.9107 37.1734 66.6666 41.4127 66.6666 45.8329V54.1663Z" stroke="#3C474C" stroke-width="3.33333" stroke-linecap="round" stroke-linejoin="round"/>
<path d="M66.6666 50.0002H33.3333" stroke="#3C474C" stroke-width="3.33333" stroke-linecap="round" stroke-linejoin="round"/>
<path d="M55.8333 45.0002C57.214 45.0002 58.3333 43.881 58.3333 42.5002C58.3333 41.1195 57.214 40.0002 55.8333 40.0002C54.4526 40.0002 53.3333 41.1195 53.3333 42.5002C53.3333 43.881 54.4526 45.0002 55.8333 45.0002Z" fill="#3C474C"/>
<path d="M44.1663 45.0002C45.547 45.0002 46.6663 43.881 46.6663 42.5002C46.6663 41.1195 45.547 40.0002 44.1663 40.0002C42.7856 40.0002 41.6663 41.1195 41.6663 42.5002C41.6663 43.881 42.7856 45.0002 44.1663 45.0002Z" fill="#3C474C"/>
<path d="M35.0003 29.1663L39.2295 33.1038" stroke="#3C474C" stroke-width="3.33333" stroke-linecap="round" stroke-linejoin="round"/>
<path d="M65.001 29.1663L60.7718 33.1038" stroke="#3C474C" stroke-width="3.33333" stroke-linecap="round" stroke-linejoin="round"/>
</svg>
