<svg width="19" height="18" viewBox="0 0 19 18" fill="none" xmlns="http://www.w3.org/2000/svg">
<path d="M8.82524 0.97646C9.21882 0.363697 10.1144 0.363699 10.508 0.976462L12.8652 4.64638C13.0006 4.85721 13.2103 5.00952 13.4526 5.07316L17.6713 6.18092C18.3757 6.36589 18.6525 7.21767 18.1914 7.78134L15.4295 11.1572C15.2708 11.3512 15.1907 11.5976 15.2051 11.8478L15.4552 16.2023C15.497 16.9294 14.7724 17.4558 14.0938 17.1915L10.0297 15.608C9.79619 15.517 9.53706 15.517 9.30358 15.608L5.23945 17.1915C4.56086 17.4558 3.83629 16.9294 3.87805 16.2023L4.12816 11.8478C4.14253 11.5976 4.06245 11.3512 3.90378 11.1572L1.1419 7.78134C0.680751 7.21767 0.957514 6.36589 1.66191 6.18092L5.88062 5.07316C6.12298 5.00952 6.33262 4.85721 6.46804 4.64638L8.82524 0.97646Z" fill="#FFCD00"/>
</svg>
