<svg width="109" height="43" viewBox="0 0 109 43" fill="none" xmlns="http://www.w3.org/2000/svg">
<path d="M38.495 18.9843C38.495 17.3843 36.96 15.7063 34.292 15.7063C31.3 15.7063 28.015 17.9093 27.512 22.3063C26.998 26.7463 29.749 28.7193 32.522 28.7193C35.295 28.7193 36.747 27.6343 38.232 26.1873C36.955 24.5773 35.306 25.3213 34.99 25.4853C34.4669 25.7767 33.8745 25.9209 33.276 25.9023C32.206 25.9023 31.114 25.4203 31.114 23.4143C37.97 22.7343 38.494 20.5743 38.494 18.9843H38.495ZM35.097 19.2473C35.053 19.7403 34.857 20.5843 31.385 21.0573C32.115 18.4473 33.515 18.2513 34.158 18.2513C34.2883 18.2453 34.4184 18.2675 34.5394 18.3163C34.6604 18.365 34.7694 18.4393 34.8592 18.534C34.9489 18.6286 35.0172 18.7415 35.0595 18.865C35.1017 18.9884 35.1169 19.1194 35.104 19.2493L35.097 19.2473ZM23.485 19.6753L21.891 24.7073L20.766 15.9703C18.256 15.9703 16.906 17.7683 16.202 19.6643L14.258 24.7183L13.985 19.7183C13.837 17.3943 11.715 15.9803 10 15.9803L12.074 28.6203C14.704 28.6103 16.124 26.8223 16.867 24.9263L18.511 20.6293C18.526 20.8043 19.647 28.6213 19.647 28.6213C22.289 28.6213 23.709 26.9443 24.47 25.1133L28.17 15.9813C25.565 15.9813 24.192 17.7683 23.483 19.6753H23.485ZM48.191 15.6753C46.564 15.6753 45.321 16.5633 44.271 17.8673V17.8573L45.209 10.2603C43.047 10.2603 41.289 12.1463 40.951 14.9523L39.325 28.5223C40.57 28.5223 41.891 28.1603 42.601 27.2393C43.235 28.0613 44.184 28.7193 45.593 28.7193C49.239 28.7193 51.74 24.4663 51.74 20.4753C51.718 16.8353 49.96 15.6853 48.202 15.6853L48.191 15.6753ZM47.851 22.1983C47.471 24.4233 46.235 25.9363 45.046 25.9363C43.857 25.9363 43.332 25.3993 43.332 25.3993C43.562 23.4493 43.704 22.2533 44.14 21.2223C44.576 20.1913 45.614 18.5473 46.695 18.5473C47.755 18.5473 48.235 19.9613 47.852 22.1973L47.851 22.1983ZM60.833 15.9713H58.289L58.299 15.8393C58.474 14.1733 58.867 13.2963 60.163 13.1533C61.048 13.0653 61.441 12.6053 61.539 12.1013L61.856 10.3363C56.756 10.3033 55.142 12.5163 54.731 15.8943L54.721 15.9713H54.666C53.836 15.9713 52.92 16.9143 52.766 18.1093L52.711 18.5473H54.415L52.985 30.4073L52.547 32.5343C52.602 32.5343 52.667 32.5443 52.721 32.5443C55.111 32.4563 56.641 30.5603 56.979 27.8083L58.095 18.5453H58.895C59.681 18.5453 60.599 17.7553 60.759 16.4403L60.833 15.9713ZM74.065 15.7513C71.128 15.7513 68.355 17.9213 67.505 21.3313C66.655 24.7413 67.943 28.7743 72.265 28.7743C76.587 28.7743 79.062 24.5743 79.062 21.0783C79.066 17.6033 76.72 15.7503 74.066 15.7503L74.065 15.7513ZM75.255 22.0873C75.103 23.6333 74.425 25.9793 72.569 25.9793C70.713 25.9793 70.964 23.2393 71.144 21.9343C71.341 20.5423 72.116 18.5583 73.786 18.5583C75.288 18.5583 75.429 20.3453 75.256 22.0883L75.255 22.0873ZM93.575 19.6643L91.981 24.6963C91.938 24.3013 90.857 15.9593 90.857 15.9593C88.347 15.9593 87.003 17.7573 86.299 19.6533L84.355 24.7073C84.345 24.3453 84.082 19.7073 84.082 19.7073C83.924 17.3833 81.804 15.9693 80.082 15.9693L82.145 28.6093C84.775 28.5993 86.195 26.8113 86.938 24.9153L88.576 20.6183C88.586 20.7933 89.712 28.6103 89.712 28.6103C92.354 28.6103 93.768 26.9333 94.535 25.1023L98.238 15.9703C95.64 15.9703 94.264 17.7573 93.565 19.6643H93.575ZM63.235 10.3343L61.095 27.6643L60.657 29.8023C60.711 29.8023 60.777 29.8123 60.831 29.8123C63.133 29.7793 64.771 27.7523 65.078 25.1973L66.311 15.2543C66.685 12.2173 64.884 10.3323 63.235 10.3323V10.3343Z" fill="#9B9DA0"/>
</svg>
